<svg xmlns="http://www.w3.org/2000/svg" xmlns:xlink="http://www.w3.org/1999/xlink" id="Слой_1" width="70" height="70" x="0" y="0" enable-background="new 0 0 70 70" version="1.1" viewBox="0 0 70 70" xml:space="preserve"><g><defs><polygon id="SVGID_1_" points="4.928 55.375 29.89 66.799 29.89 33.517 5.161 21.037"/></defs><clipPath id="SVGID_2_"><use overflow="visible" xlink:href="#SVGID_1_"/></clipPath><linearGradient id="SVGID_3_" x1="-599.982" x2="-598.982" y1="527.745" y2="527.745" gradientTransform="matrix(39.0681 39.0681 39.0681 -39.0681 2806.4312 44068.8906)" gradientUnits="userSpaceOnUse"><stop offset="0" style="stop-color:#63adfb"/><stop offset=".296" style="stop-color:#63adfb"/><stop offset=".694" style="stop-color:#5280fa"/><stop offset="1" style="stop-color:#935dfa"/></linearGradient><polygon fill="url(#SVGID_3_)" points="17.409 8.556 52.771 43.918 17.409 79.28 -17.953 43.918" clip-path="url(#SVGID_2_)"/></g><g><defs><polygon id="SVGID_4_" points="29.666 33.517 29.666 66.799 54.627 55.375 54.395 21.037"/></defs><clipPath id="SVGID_5_"><use overflow="visible" xlink:href="#SVGID_4_"/></clipPath><linearGradient id="SVGID_6_" x1="-599.082" x2="-598.082" y1="525.976" y2="525.976" gradientTransform="matrix(71.1394 70.3073 70.3073 -71.1394 5647.0747 79548.4141)" gradientUnits="userSpaceOnUse"><stop offset="0" style="stop-color:#63adfb"/><stop offset=".296" style="stop-color:#63adfb"/><stop offset=".694" style="stop-color:#5280fa"/><stop offset="1" style="stop-color:#935dfa"/></linearGradient><polygon fill="url(#SVGID_6_)" points="42 8.557 77.506 43.649 42.293 79.279 6.787 44.187" clip-path="url(#SVGID_5_)"/></g><g><defs><polygon id="SVGID_7_" points=".769 12.865 5.257 21.134 29.852 9.423 25.583 .095"/></defs><clipPath id="SVGID_8_"><use overflow="visible" xlink:href="#SVGID_7_"/></clipPath><linearGradient id="SVGID_9_" x1="-604.438" x2="-603.438" y1="529.418" y2="529.418" gradientTransform="matrix(11.0628 26.3469 26.3469 -11.0628 -7256.0513 21769.748)" gradientUnits="userSpaceOnUse"><stop offset="0" style="stop-color:#63adfb"/><stop offset=".296" style="stop-color:#63adfb"/><stop offset=".694" style="stop-color:#5280fa"/><stop offset="1" style="stop-color:#935dfa"/></linearGradient><polygon fill="url(#SVGID_9_)" points="25.493 -10.286 37.362 17.981 5.128 31.515 -6.741 3.248" clip-path="url(#SVGID_8_)"/></g><g><defs><polygon id="SVGID_10_" points="29.852 9.11 54.295 21.134 58.963 11.999 33.553 .459"/></defs><clipPath id="SVGID_11_"><use overflow="visible" xlink:href="#SVGID_10_"/></clipPath><linearGradient id="SVGID_12_" x1="-608.253" x2="-607.253" y1="531.731" y2="531.731" gradientTransform="matrix(6.2592 17.7587 17.7587 -6.2592 -5592.3984 14137.6016)" gradientUnits="userSpaceOnUse"><stop offset="0" style="stop-color:#63adfb"/><stop offset=".296" style="stop-color:#63adfb"/><stop offset=".694" style="stop-color:#5280fa"/><stop offset="1" style="stop-color:#935dfa"/></linearGradient><polygon fill="url(#SVGID_12_)" points="55.746 -8.668 65.445 18.849 33.069 30.261 23.37 2.744" clip-path="url(#SVGID_11_)"/></g></svg>