<svg xmlns="http://www.w3.org/2000/svg" xmlns:xlink="http://www.w3.org/1999/xlink" id="Слой_1" width="74" height="70" x="0" y="0" enable-background="new 0 0 74 70" version="1.1" viewBox="0 0 74 70" xml:space="preserve"><g><defs><path id="SVGID_1_" d="M13.447,20.751c0,0.699,0.036,1.389,0.103,2.069c-0.983-0.323-2.03-0.504-3.121-0.504 c-5.523,0-10,4.478-10,10.001c0,5.523,4.477,10.001,10,10.001h47.538v-0.039c8.375-0.548,15.001-7.51,15.001-16.024 c0-8.873-7.192-16.064-16.064-16.064c-1.554,0-3.055,0.225-4.477,0.637C48.907,4.377,42.064,0,34.198,0 C22.737,0,13.447,9.291,13.447,20.751"/></defs><clipPath id="SVGID_2_"><use overflow="visible" xlink:href="#SVGID_1_"/></clipPath><linearGradient id="SVGID_3_" x1="-596.555" x2="-595.555" y1="528.887" y2="528.887" gradientTransform="matrix(42.0025 57.0033 57.0033 -42.0025 -5081.1396 56205.6445)" gradientUnits="userSpaceOnUse"><stop offset="0" style="stop-color:#63adfb"/><stop offset=".296" style="stop-color:#63adfb"/><stop offset=".694" style="stop-color:#5280fa"/><stop offset="1" style="stop-color:#935dfa"/></linearGradient><polygon fill="url(#SVGID_3_)" points="47.442 -34.642 93.177 27.427 25.954 76.96 -19.781 14.891" clip-path="url(#SVGID_2_)"/></g></svg>