<svg xmlns="http://www.w3.org/2000/svg" xmlns:xlink="http://www.w3.org/1999/xlink" id="Слой_1" width="70" height="70" x="0" y="0" enable-background="new 0 0 70 70" version="1.1" viewBox="0 0 70 70" xml:space="preserve"><g><defs><path id="SVGID_1_" d="M30.953,36.683L10.58,16.309c-0.575-0.574-0.66-1.256-0.66-1.612c0-0.356,0.085-1.038,0.66-1.611 l2.684-2.686c0.574-0.573,1.257-0.658,1.612-0.658c0.356,0,1.038,0.085,1.611,0.658l20.374,20.374 c0.574,0.574,0.66,1.256,0.66,1.612c0,0.356-0.086,1.038-0.66,1.611l-2.685,2.686c-0.574,0.573-1.256,0.659-1.611,0.659 C32.209,37.342,31.526,37.256,30.953,36.683 M6.818,3.954L4.133,6.639c-2.148,2.148-3.33,5.009-3.33,8.058 c0,3.049,1.182,5.911,3.33,8.059L24.507,43.13c2.147,2.146,5.008,3.329,8.058,3.329c3.049,0,5.911-1.183,8.057-3.329l2.685-2.686 c2.148-2.147,3.331-5.008,3.331-8.058c0-3.049-1.183-5.911-3.33-8.058L22.934,3.955c-2.147-2.148-5.009-3.33-8.058-3.33 C11.828,0.624,8.966,1.807,6.818,3.954"/></defs><clipPath id="SVGID_2_"><use overflow="visible" xlink:href="#SVGID_1_"/></clipPath><linearGradient id="SVGID_3_" x1="-601.8" x2="-600.801" y1="525.196" y2="525.196" gradientTransform="matrix(47.5573 44.0627 44.0627 -47.5573 5460.3081 51478.6211)" gradientUnits="userSpaceOnUse"><stop offset="0" style="stop-color:#63adfb"/><stop offset=".296" style="stop-color:#63adfb"/><stop offset=".694" style="stop-color:#5280fa"/><stop offset="1" style="stop-color:#935dfa"/></linearGradient><polygon fill="url(#SVGID_3_)" points="21.974 -22.226 69.488 21.796 25.466 69.309 -22.048 25.287" clip-path="url(#SVGID_2_)"/></g><g><defs><path id="SVGID_4_" d="M19.294,25.021l7.249,8.295l20.374,20.374c0.873,0.873,0.873,2.35,0,3.223L44.231,59.6 c-0.573,0.573-1.256,0.659-1.612,0.659c-0.355,0-1.037-0.085-1.611-0.659L20.634,39.226l-7.908-7.877 c-2.912,4.42-2.424,10.437,1.462,14.323l20.374,20.374c2.147,2.147,5.008,3.33,8.057,3.33c3.05,0,5.912-1.183,8.058-3.33 l2.686-2.685c4.442-4.443,4.442-11.672,0-16.117L32.989,26.87c-2.147-2.147-5.009-3.329-8.058-3.329 C22.92,23.542,20.991,24.055,19.294,25.021"/></defs><clipPath id="SVGID_5_"><use overflow="visible" xlink:href="#SVGID_4_"/></clipPath><linearGradient id="SVGID_6_" x1="-602.385" x2="-601.385" y1="525.226" y2="525.226" gradientTransform="matrix(40.2642 40.2642 40.2642 -40.2642 3115.6309 45423.875)" gradientUnits="userSpaceOnUse"><stop offset="0" style="stop-color:#63adfb"/><stop offset=".296" style="stop-color:#63adfb"/><stop offset=".694" style="stop-color:#5280fa"/><stop offset="1" style="stop-color:#935dfa"/></linearGradient><polygon fill="url(#SVGID_6_)" points="33.809 -.454 80.722 46.459 33.809 93.371 -13.103 46.458" clip-path="url(#SVGID_5_)"/></g></svg>